<?xml version="1.0" encoding="UTF-8" standalone="no"?>
<!DOCTYPE svg PUBLIC "-//W3C//DTD SVG 1.1//EN" "http://www.w3.org/Graphics/SVG/1.1/DTD/svg11.dtd">
<svg version="1.1" xmlns="http://www.w3.org/2000/svg" xmlns:xlink="http://www.w3.org/1999/xlink" preserveAspectRatio="xMidYMid meet" viewBox="0 0 640 640" width="640" height="640"><defs><path d="M6.52 0.15C6.72 -0.05 7.04 -0.05 7.24 0.15C7.44 0.34 7.44 0.67 7.24 0.86C6.89 1.21 5.18 2.92 2.09 6.01C5.18 9.1 6.9 10.82 7.24 11.16C7.43 11.37 7.42 11.69 7.21 11.88C7.02 12.06 6.72 12.06 6.52 11.88C5.97 11.33 1.56 6.92 1.01 6.37C0.82 6.18 0.81 5.86 1.01 5.66C1.01 5.66 1.01 5.66 1.01 5.66C2.12 4.55 5.97 0.7 6.52 0.15Z" id="b2tdXh5vG"></path></defs><g><g><g><use xlink:href="#b2tdXh5vG" opacity="1" fill="#c1c6ce" fill-opacity="1"></use><g><use xlink:href="#b2tdXh5vG" opacity="1" fill-opacity="0" stroke="#000000" stroke-width="1" stroke-opacity="0"></use></g></g></g></g></svg>