<?xml version="1.0" encoding="UTF-8" standalone="no"?>
<!DOCTYPE svg PUBLIC "-//W3C//DTD SVG 1.1//EN" "http://www.w3.org/Graphics/SVG/1.1/DTD/svg11.dtd">
<svg version="1.1" xmlns="http://www.w3.org/2000/svg" xmlns:xlink="http://www.w3.org/1999/xlink" preserveAspectRatio="xMidYMid meet" viewBox="0 0 640 640" width="640" height="640"><defs><path d="M1.73 0.15C1.53 -0.05 1.21 -0.05 1.01 0.15C0.82 0.35 0.82 0.67 1.01 0.86C1.36 1.21 3.07 2.92 6.16 6.02C3.07 9.11 1.36 10.82 1.01 11.17C0.82 11.37 0.83 11.69 1.04 11.88C1.23 12.06 1.53 12.06 1.73 11.88C2.28 11.33 6.69 6.92 7.24 6.37C7.43 6.18 7.44 5.86 7.24 5.66C7.24 5.66 7.24 5.66 7.24 5.66C6.14 4.56 2.28 0.7 1.73 0.15Z" id="a1gXt6qKtT"></path></defs><g><g><g><use xlink:href="#a1gXt6qKtT" opacity="1" fill="#ffffff" fill-opacity="1"></use><g><use xlink:href="#a1gXt6qKtT" opacity="1" fill-opacity="0" stroke="#ffffff" stroke-width="1" stroke-opacity="1"></use></g></g></g></g></svg>